Coordinates
version=1
nRows=32
nColumns=22
inDegrees=yes

Units are S.I. units (second, meters, Newtons, ...)
If the header above contains a line with 'inDegrees', this indicates whether rotational values are in degrees (yes) or radians (no).

endheader
time	pelvis_tilt	pelvis_list	pelvis_rotation	pelvis_tx	pelvis_ty	pelvis_tz	hip_flexion_r	hip_adduction_r	hip_rotation_r	knee_angle_r	ankle_angle_r	subtalar_angle_r	hip_flexion_l	hip_adduction_l	hip_rotation_l	knee_angle_l	ankle_angle_l	subtalar_angle_l	lumbar_extension	lumbar_bending	lumbar_rotation
      4.19000000	      2.57888311	     -2.16395685	     66.52656769	      0.40116775	      0.92746289	     -0.41038166	     25.84208442	      5.89552600	      8.35499521	    -23.77322929	      1.84102455	      2.36533882	     -4.18522131	      4.48391599	     16.97986135	    -32.24803653	     12.92602349	     -0.63645186	     -5.78849388	      2.63596945	     -8.26280041
      4.20000000	      2.68309827	     -2.15204615	     66.76882837	      0.40581469	      0.92851497	     -0.41772336	     25.46390965	      6.00998119	      8.04742805	    -24.14381014	      1.93908855	      2.20016307	     -3.40450985	      4.31107212	     16.10015286	    -34.26296169	     11.70678388	      1.60491177	     -5.75533753	      2.78704010	     -8.22887738
      4.21000000	      2.80077547	     -2.13025581	     67.03701339	      0.41037822	      0.92961999	     -0.42493639	     25.01603518	      6.11492200	      7.69077545	    -24.40682442	      2.09812754	      2.04615448	     -2.45615600	      4.07653816	     15.06352483	    -36.45851002	     10.40592319	      3.95344734	     -5.75040802	      2.93502447	     -8.18761907
      4.22000000	      2.93303925	     -2.10259081	     67.32928215	      0.41486200	      0.93073106	     -0.43198278	     24.50570528	      6.21901527	      7.28812982	    -24.56484581	      2.31988408	      1.88170053	     -1.34813166	      3.76155677	     13.88724000	    -38.80029441	      9.08595471	      6.33054197	     -5.77294617	      3.07998331	     -8.12575949
      4.23000000	      3.08569853	     -2.05611347	     67.63773658	      0.41930266	      0.93184851	     -0.43885989	     23.91462281	      6.33171307	      6.85369410	    -24.61254466	      2.56993235	      1.69391289	     -0.12427226	      3.34570625	     12.58078933	    -41.23030367	      7.80094312	      8.65605825	     -5.83605845	      3.21655081	     -8.03028587
      4.24000000	      3.26489431	     -2.08295497	     67.94942955	      0.42371634	      0.93274521	     -0.44546190	     23.39463388	      6.51110487	      6.39222984	    -24.64861550	      2.86074470	      1.50004406	      1.31464182	      2.77641807	     11.14919123	    -43.76826977	      6.62406418	     10.55152791	     -5.85166195	      3.39048084	     -7.86885330
      4.25000000	      3.46342898	     -2.05302964	     68.27524813	      0.42810303	      0.93368553	     -0.45190841	     22.75406929	      6.69950190	      5.98494010	    -24.57854073	      3.22153045	      1.25731967	      2.75728217	      2.12467805	      9.71782076	    -46.27310882	      5.56527089	     12.32991402	     -5.94339619	      3.53875097	     -7.70145635
      4.26000000	      3.69740914	     -2.04207146	     68.58173218	      0.43249495	      0.93449663	     -0.45810928	     22.13625407	      6.95221546	      5.58493752	    -24.51350266	      3.57570056	      1.01592529	      4.27511200	      1.33934390	      8.24993338	    -48.75705622	      4.68060331	     13.51109426	     -6.04581859	      3.70948744	     -7.45109293
      4.27000000	      3.95794645	     -2.02579048	     68.86188782	      0.43690513	      0.93525256	     -0.46414796	     21.49632858	      7.24891196	      5.20912484	    -24.41898544	      3.93664621	      0.79381095	      5.79774138	      0.44627500	      6.77699145	    -51.14389734	      3.99483085	     14.11117054	     -6.16871033	      3.88490739	     -7.12391164
      4.28000000	      4.23697925	     -1.98169179	     69.11438248	      0.44130659	      0.93598294	     -0.46999276	     20.83262932	      7.58321376	      4.92207101	    -24.32736610	      4.30260773	      0.59641633	      7.28839602	     -0.50970193	      5.36428166	    -53.41159361	      3.52452324	     14.23387823	     -6.34166106	      4.05356465	     -6.75914026
      4.29000000	      4.47665615	     -1.97594390	     69.34311918	      0.44567136	      0.93659128	     -0.47572735	     20.23001246	      7.90540956	      4.66110760	    -24.23453904	      4.70415214	      0.30892600	      8.81404358	     -1.48115023	      4.01383413	    -55.52106688	      3.24743819	     13.84916404	     -6.44903181	      4.18591652	     -6.34415026
      4.30000000	      4.71709662	     -1.93516601	     69.53080170	      0.45000901	      0.93723080	     -0.48134369	     19.60241806	      8.23874234	      4.47615992	    -24.14989440	      5.08726569	      0.03821714	     10.25956812	     -2.45858194	      2.73735548	    -57.43842845	      3.12483847	     12.89292403	     -6.59810896	      4.29596822	     -5.89019549
      4.31000000	      4.93976046	     -1.86141451	     69.69181889	      0.45427627	      0.93791892	     -0.48688622	     18.94877914	      8.55839226	      4.37378814	    -24.06115013	      5.47464493	     -0.19554951	     11.61837940	     -3.40636109	      1.54990014	    -59.13513626	      3.17623187	     11.59598747	     -6.77288748	      4.37247658	     -5.41592842
      4.32000000	      5.12695323	     -1.77811790	     69.81926046	      0.45844965	      0.93864204	     -0.49238763	     18.29841503	      8.84467759	      4.30541130	    -23.96352527	      5.83078992	     -0.40628711	     12.90908359	     -4.29635905	      0.44592830	    -60.59504755	      3.36696028	     10.10744075	     -6.93627951	      4.41143223	     -4.90200402
      4.33000000	      5.27148389	     -1.66473358	     69.93244240	      0.46247753	      0.93941895	     -0.49783711	     17.64246715	      9.08304014	      4.29793967	    -23.87889639	      6.18909387	     -0.61493515	     14.11361459	     -5.09222253	     -0.55854577	    -61.81261358	      3.67434749	      8.49855476	     -7.11313573	      4.40296975	     -4.41608530
      4.34000000	      5.37325679	     -1.53826123	     70.03020461	      0.46635110	      0.94024645	     -0.50325470	     16.99107911	      9.27143580	      4.31458089	    -23.79095546	      6.51051606	     -0.81169660	     15.24366227	     -5.78968175	     -1.47283939	    -62.77933490	      4.05559493	      6.91331849	     -7.28191329	      4.35510002	     -3.92959836
      4.35000000	      5.43621314	     -1.40404914	     70.11809398	      0.47005010	      0.94111892	     -0.50864514	     16.34289067	      9.41071192	      4.34616960	    -23.68907300	      6.79960563	     -0.99249314	     16.30291645	     -6.38332280	     -2.29561950	    -63.49563411	      4.48040601	      5.44658622	     -7.43903702	      4.27594478	     -3.43428095
      4.36000000	      5.44400401	     -1.25267968	     70.22980721	      0.47350683	      0.94203195	     -0.51403101	     15.69086884	      9.47138956	      4.37707478	    -23.56982110	      7.10586035	     -1.17697276	     17.28868613	     -6.82843277	     -3.00173300	    -63.95575055	      4.95084100	      4.08735955	     -7.58832193	      4.15222600	     -3.00538366
      4.37000000	      5.42645964	     -1.10086146	     70.34384490	      0.47677455	      0.94295851	     -0.51936364	     15.05301574	      9.49476776	      4.39678742	    -23.44634193	      7.37930836	     -1.34081823	     18.21308082	     -7.17927262	     -3.62654885	    -64.17724032	      5.42184804	      2.94133643	     -7.72925878	      4.01384456	     -2.57920436
      4.38000000	      5.37777371	     -0.95139472	     70.47801470	      0.47982062	      0.94388298	     -0.52466411	     14.42390008	      9.47042058	      4.39799824	    -23.30161711	      7.63330056	     -1.49154479	     19.07899562	     -7.42179186	     -4.16340421	    -64.15848731	      5.90487495	      1.98405571	     -7.85603564	      3.86118312	     -2.19533985
      4.39000000	      5.31398507	     -0.81406024	     70.61114144	      0.48269512	      0.94478206	     -0.52990071	     13.81361906	      9.42516150	      4.39633953	    -23.14451291	      7.85188260	     -1.60488139	     19.89016443	     -7.59223038	     -4.64093812	    -63.91343807	      6.39606831	      1.27514929	     -7.96739193	      3.70848859	     -1.79871178
      4.40000000	      5.23395283	     -0.68053994	     70.77171690	      0.48536225	      0.94563970	     -0.53507261	     13.22020265	      9.34379664	      4.32768150	    -22.98075142	      8.08863033	     -1.71321046	     20.64341433	     -7.68501314	     -5.04948504	    -63.44703757	      6.87069875	      0.70182385	     -8.07654325	      3.55299050	     -1.45228822
      4.41000000	      5.15095154	     -0.60558596	     70.97594884	      0.48781012	      0.94635516	     -0.54016909	     12.69135140	      9.25937720	      4.20252737	    -22.79966439	      8.31874194	     -1.75473211	     21.40802774	     -7.72544642	     -5.35256538	    -62.79561031	      7.40139891	      0.45368399	     -8.12602197	      3.43224786	     -1.14580822
      4.42000000	      5.05849481	     -0.48407867	     71.12948096	      0.49020190	      0.94711881	     -0.54519600	     12.11733209	      9.15208764	      4.10333813	    -22.61197694	      8.54997527	     -1.84133253	     22.01290623	     -7.73712561	     -5.71717041	    -61.90372342	      7.82897125	      0.09982215	     -8.23115230	      3.28243925	     -0.77262091
      4.43000000	      4.97671772	     -0.45795969	     71.34214221	      0.49237921	      0.94766475	     -0.55012480	     11.64596356	      9.07059935	      3.94808508	    -22.41058842	      8.75754215	     -1.87306689	     22.66828015	     -7.72555235	     -5.95463445	    -60.85688988	      8.31817480	     -0.04547357	     -8.24264562	      3.19506184	     -0.45545769
      4.44000000	      4.89069761	     -0.43254209	     71.53464060	      0.49447541	      0.94815033	     -0.55496166	     11.19175096	      8.98250040	      3.77894721	    -22.22066928	      8.98571196	     -1.90013195	     23.23017246	     -7.70389461	     -6.21312899	    -59.62345127	      8.78601162	     -0.13517937	     -8.26206720	      3.10229669	     -0.10916396
      4.45000000	      4.80339501	     -0.36377438	     71.69743265	      0.49651817	      0.94866678	     -0.55973089	     10.69857227	      8.87862041	      3.61713182	    -22.03067104	      9.24297104	     -1.91570880	     23.63579610	     -7.67182048	     -6.51255709	    -58.20140988	      9.19504524	     -0.10961339	     -8.33637196	      2.98987422	      0.28131823
      4.46000000	      4.72773430	     -0.35966885	     71.87895844	      0.49844624	      0.94902235	     -0.56440655	     10.28532252	      8.80455459	      3.44300481	    -21.84950248	      9.47520844	     -1.90012079	     24.02873762	     -7.65187685	     -6.76685016	    -56.65014188	      9.63260189	     -0.03570339	     -8.34894135	      2.91885611	      0.64439504
      4.47000000	      4.66200993	     -0.43132946	     72.07389876	      0.50026138	      0.94918642	     -0.56898491	      9.98436126	      8.76112300	      3.23542481	    -21.71204081	      9.68800998	     -1.89302352	     24.42477137	     -7.65302089	     -6.99093069	    -54.99829268	     10.06845579	     -0.02837942	     -8.28563196	      2.89255662	      0.99016901
      4.48000000	      4.57701993	     -0.42366501	     72.21463522	      0.50208125	      0.94944856	     -0.57351152	      9.62324720	      8.67928134	      3.07361961	    -21.60175254	      9.97736126	     -1.84155771	     24.61507339	     -7.63211656	     -7.29291418	    -53.20623246	     10.41487880	      0.12616599	     -8.30659095	      2.80533168	      1.39866971
      4.49000000	      4.50815518	     -0.47402598	     72.37214948	      0.50379432	      0.94956930	     -0.57796782	      9.34674541	      8.63001475	      2.89600385	    -21.52569945	     10.22178428	     -1.79156551	     24.78909420	     -7.63046939	     -7.55778845	    -51.36028749	     10.76839256	      0.21328972	     -8.26758695	      2.76452654	      1.76656128
      4.50000000	      4.43380981	     -0.52887700	     72.51729463	      0.50545011	      0.94964741	     -0.58237138	      9.10299312	      8.57920282	      2.73474009	    -21.48718449	     10.45786635	     -1.73748903	     24.87984329	     -7.62025877	     -7.82476433	    -49.46610734	     11.08123681	      0.27886373	     -8.21859069	      2.71667372	      2.11873560
